HIERARCHY
ROOT Hips
{
	OFFSET 0.000000 0.000000 0.000000
	CHANNELS 6 Xposition Yposition Zposition Zrotation Yrotation Xrotation 
	JOINT LeftUpLeg_virtual
	{
		OFFSET 0.000000 0.000000 0.000000
		CHANNELS 3 Zrotation Yrotation Xrotation
		JOINT LeftUpLeg
		{
			OFFSET 8.479694 -4.795517 -0.379053
			CHANNELS 3 Zrotation Yrotation Xrotation
			JOINT LeftLeg
			{
				OFFSET 0.485052 -32.551468 0.112863
				CHANNELS 3 Zrotation Yrotation Xrotation
				JOINT LeftFoot
				{
					OFFSET 0.438033 -32.635670 -3.012641
					CHANNELS 3 Zrotation Yrotation Xrotation
					JOINT LeftToeBase
					{
						OFFSET 0.970169 -13.225353 11.864223
						CHANNELS 3 Zrotation Yrotation Xrotation
						End Site
						{
							OFFSET 0.000000 0.000000 0.000000
						}
					}
				}
			}
		}
	}
	JOINT RightUpLeg_virtual
	{
		OFFSET 0.000000 0.000000 0.000000
		CHANNELS 3 Zrotation Yrotation Xrotation
		JOINT RightUpLeg
		{
			OFFSET -8.479694 -4.795517 -0.379053
			CHANNELS 3 Zrotation Yrotation Xrotation
			JOINT RightLeg
			{
				OFFSET -0.484100 -32.551483 0.112903
				CHANNELS 3 Zrotation Yrotation Xrotation
				JOINT RightFoot
				{
					OFFSET -0.438985 -32.635651 -3.012681
					CHANNELS 3 Zrotation Yrotation Xrotation
					JOINT RightToeBase
					{
						OFFSET -0.970169 -13.225354 11.864223
						CHANNELS 3 Zrotation Yrotation Xrotation
						End Site
						{
							OFFSET 0.000000 0.000000 0.000000
						}
					}
				}
			}
		}
	}
	JOINT Spine_virtual
	{
		OFFSET 0.000000 0.000000 0.000000
		CHANNELS 3 Zrotation Yrotation Xrotation
		JOINT Spine
		{
			OFFSET 0.000000 7.722015 1.166203
			CHANNELS 3 Zrotation Yrotation Xrotation
			JOINT Spine1
			{
				OFFSET 0.000000 12.024086 0.248766
				CHANNELS 3 Zrotation Yrotation Xrotation
				JOINT Spine2
				{
					OFFSET -0.000000 11.503036 -0.491240
					CHANNELS 3 Zrotation Yrotation Xrotation
					JOINT Neck_virtual
					{
						OFFSET 0.000000 0.000000 0.000000
						CHANNELS 3 Zrotation Yrotation Xrotation
						JOINT Neck
						{
							OFFSET 0.000000 18.430687 -3.123054
							CHANNELS 3 Zrotation Yrotation Xrotation
							JOINT Head
							{
								OFFSET -0.000000 9.051071 1.034021
								CHANNELS 3 Zrotation Yrotation Xrotation
								End Site
								{
									OFFSET 0.000000 0.000000 0.000000
								}
							}
						}
					}
					JOINT LeftShoulder_virtual
					{
						OFFSET 0.000000 0.000000 0.000000
						CHANNELS 3 Zrotation Yrotation Xrotation
						JOINT LeftShoulder
						{
							OFFSET 6.197824 13.665230 -4.064723
							CHANNELS 3 Zrotation Yrotation Xrotation
							JOINT LeftArm
							{
								OFFSET 7.778132 -0.187073 -1.709282
								CHANNELS 3 Zrotation Yrotation Xrotation
								JOINT LeftForeArm
								{
									OFFSET 21.954697 0.000000 -2.041093
									CHANNELS 3 Zrotation Yrotation Xrotation
									JOINT LeftHand
									{
										OFFSET 22.992908 0.000000 -0.870901
										CHANNELS 3 Zrotation Yrotation Xrotation
										End Site
										{
											OFFSET 0.000000 0.000000 0.000000
										}
									}
								}
							}
						}
					}
					JOINT RightShoulder_virtual
					{
						OFFSET 0.000000 0.000000 0.000000
						CHANNELS 3 Zrotation Yrotation Xrotation
						JOINT RightShoulder
						{
							OFFSET -6.197824 13.665230 -4.064723
							CHANNELS 3 Zrotation Yrotation Xrotation
							JOINT RightArm
							{
								OFFSET -7.778132 -0.187073 -1.709282
								CHANNELS 3 Zrotation Yrotation Xrotation
								JOINT RightForeArm
								{
									OFFSET -21.954697 0.000000 -2.041093
									CHANNELS 3 Zrotation Yrotation Xrotation
									JOINT RightHand
									{
										OFFSET -22.992908 0.000000 -0.870901
										CHANNELS 3 Zrotation Yrotation Xrotation
										End Site
										{
											OFFSET 0.000000 0.000000 0.000000
										}
									}
								}
							}
						}
					}
				}
			}
		}
	}
}
MOTION
Frames: 5
Frame Time: 0.033333
28.102423 78.423439 25.707718 178.929414 10.539142 -179.869726 -3.679829 -1.397310 9.432014 -11.669020 3.441157 -37.901232 11.937550 5.752194 36.248091 -1.713446 -11.704785 -8.112042 0.000000 0.000000 0.000000 1.781761 -2.319008 9.419358 12.279428 0.491374 -27.058966 1.482395 0.873744 36.360007 3.628586 3.044341 -16.368395 0.000000 0.000000 0.000000 -0.018568 1.217146 -0.625598 -3.662073 3.172339 1.066299 -0.454806 -2.002133 7.238777 0.143848 0.239128 0.055029 -0.558680 -0.616154 9.760186 -0.308280 2.363758 3.847614 0.000000 0.000000 0.000000 0.436512 -0.178447 6.351046 10.946678 3.093286 -2.731172 -11.204021 -7.548968 -52.760756 0.701623 -48.479911 -0.457991 0.000000 0.000000 0.000000 -2.375647 1.044075 6.757554 26.301491 0.898894 3.706649 49.843469 -5.290145 0.969150 0.172616 35.618323 -1.918595 0.000000 0.000000 0.000000 
28.029181 78.445160 25.875296 178.937064 10.328852 -179.853730 -3.692643 -1.429495 9.268787 -11.716419 3.535609 -37.669757 11.907364 5.945537 35.883922 -2.089801 -11.648025 -7.924218 0.000000 0.000000 0.000000 1.724014 -2.276713 9.367458 12.283119 0.664025 -27.016074 1.461738 0.804777 35.998287 3.489590 3.086528 -16.239516 0.000000 0.000000 0.000000 0.033100 1.027886 -0.663547 -3.646114 3.173831 1.060458 -0.408066 -1.982525 7.360452 0.114475 0.284310 0.110713 -0.543646 -0.805539 9.838318 -0.119391 2.315224 4.037916 0.000000 0.000000 0.000000 0.420400 -0.186422 6.471078 10.902732 3.215751 -2.670534 -11.563414 -7.174722 -52.800009 1.024090 -47.827717 -0.557548 0.000000 0.000000 0.000000 -2.410871 1.087246 6.710079 26.501894 0.496501 3.552572 50.319776 -5.581144 1.206965 -0.131313 35.520771 -2.272345 0.000000 0.000000 0.000000 
27.907738 78.478485 26.016132 178.938211 10.191061 -179.824469 -3.693975 -1.360504 9.148059 -11.758215 3.698381 -37.466928 11.856345 6.215438 35.482881 -2.480811 -11.718311 -7.702000 0.000000 0.000000 0.000000 1.725294 -2.190306 9.355142 12.208397 0.847438 -27.017515 1.429342 0.745811 35.684166 3.387818 3.052521 -16.124490 0.000000 0.000000 0.000000 0.104360 0.962910 -0.630843 -3.636526 3.213103 1.052264 -0.333809 -2.015087 7.482225 0.143716 0.227141 0.043102 -0.504646 -0.844240 10.085988 0.043056 2.186675 4.167328 0.000000 0.000000 0.000000 0.493259 -0.192226 6.695987 10.589536 3.249349 -2.658857 -11.931346 -6.992040 -53.270906 1.091722 -47.036378 -0.422118 0.000000 0.000000 0.000000 -2.372759 0.985683 6.982268 26.495841 0.367384 3.379172 50.411505 -5.271674 1.645326 -0.035435 35.128961 -2.210092 0.000000 0.000000 0.000000 
27.717762 78.510262 26.139965 178.976064 10.123642 -179.762615 -3.691325 -1.300660 9.105026 -11.841367 3.892634 -37.347819 11.792236 6.625453 35.023574 -2.744918 -11.911886 -7.560734 0.000000 0.000000 0.000000 1.779335 -2.110253 9.350958 12.084299 1.000223 -27.114785 1.391414 0.690294 35.473981 3.345081 2.951318 -16.052775 0.000000 0.000000 0.000000 0.319413 1.112240 -0.589424 -3.563484 3.344797 1.035033 -0.333141 -2.006446 7.686364 0.058454 0.200957 0.102143 -0.418255 -0.636998 10.219454 0.128647 2.059250 4.085942 0.000000 0.000000 0.000000 0.559211 -0.262669 6.888784 10.513061 3.111076 -2.822752 -12.303257 -7.152001 -53.738661 1.275657 -45.983303 -0.491365 0.000000 0.000000 0.000000 -2.249993 0.980440 6.925464 26.628804 0.185194 3.204045 50.177934 -4.882810 2.240737 -0.237736 34.795326 -2.400657 0.000000 0.000000 0.000000 
27.458960 78.536324 26.233910 178.994301 9.999883 -179.709995 -3.717814 -1.234379 9.156377 -11.967916 4.073668 -37.365923 11.760554 7.108690 34.680600 -2.818949 -12.165494 -7.361768 0.000000 0.000000 0.000000 1.843244 -2.046662 9.391185 11.907034 1.112663 -27.282315 1.331406 0.659499 35.390038 3.375440 2.798767 -16.040505 0.000000 0.000000 0.000000 0.435949 1.047913 -0.493889 -3.506920 3.350274 0.980189 -0.256670 -2.019370 7.825304 0.052748 0.213823 0.075922 -0.335761 -0.608064 10.416856 0.171415 1.996465 3.896847 0.000000 0.000000 0.000000 0.671167 -0.168381 7.111130 10.281171 3.045164 -2.851884 -12.554687 -7.466780 -53.957429 1.376600 -44.855987 -0.489333 0.000000 0.000000 0.000000 -2.135650 0.930022 7.246411 26.508483 0.360173 2.987582 49.589045 -4.209289 3.002961 -0.131005 34.459086 -2.237896 0.000000 0.000000 0.000000 
